/* XPM */
static char *dc14d458f09446468c6ad2adce0a5f4fdvIvsEFHIFIfrHLy[] = {
/* columns rows colors chars-per-pixel */
"70 70 61 1 ",
"  c None",
". c black",
"X c #0E0E0E",
"o c gray6",
"O c #101010",
"+ c #202020",
"@ c gray17",
"# c #2C2C2C",
"$ c #2D2D2D",
"% c #2F2F2F",
"& c gray19",
"* c #393939",
"= c #3C3C3C",
"- c #3F3F3F",
"; c gray25",
": c #484848",
"> c gray31",
", c #505050",
"< c #565656",
"1 c gray34",
"2 c gray35",
"3 c #606060",
"4 c #646464",
"5 c #6F6F6F",
"6 c gray44",
"7 c gray45",
"8 c gray50",
"9 c #808080",
"0 c gray56",
"q c #9B9B9B",
"w c #9D9D9D",
"e c gray62",
"r c #9F9F9F",
"t c #ACACAC",
"y c #AFAFAF",
"u c gray71",
"i c #B6B6B6",
"p c gray72",
"a c #B9B9B9",
"s c gray74",
"d c gray75",
"f c #C8C8C8",
"g c gray81",
"h c #D7D7D7",
"j c #DDDDDD",
"k c #DFDFDF",
"l c gray90",
"z c #E7E7E7",
"x c gray91",
"c c #ECECEC",
"v c #EFEFEF",
"b c #F1F1F1",
"n c #F4F4F4",
"m c #F6F6F6",
"M c gray97",
"N c #F8F8F8",
"B c #F9F9F9",
"V c gray99",
"C c #FDFDFD",
"Z c #FEFEFE",
"A c white",
/* pixels */
"                                                                      ",
"                                                                      ",
"                                                                      ",
"                                                                      ",
"                                                                      ",
"                                                                      ",
"                                                                      ",
"                                                                      ",
"                                                                      ",
"                                                                      ",
"                                                                      ",
"                                                                      ",
"                                                                      ",
"                                                                      ",
"                                                                      ",
"                                                                      ",
"                                                                      ",
"                                                                      ",
"                                                                      ",
"                                                                      ",
"                                                                      ",
"                                                                      ",
"                                                                      ",
"                                 ....                                 ",
"                                ..........                            ",
"                         ..... ............                           ",
"                         ....................                         ",
"                         ..=:#................                        ",
"                         ...4w<ssyO5O......o..                        ",
"                         ..................o..                        ",
"                        ....<77***@...........                        ",
"                       .....ubbnnAAAAAAAs3>...                        ",
"                      ......kAwkAAAAAAAAa2A#..                        ",
"                      ......BA=8AAAAAAAAf;Aw..                        ",
"                      ......AA>8AAAAkvAAs;Aa..                        ",
"                      ......AA79A,AA99AAg0An..                        ",
"                       ....+AA=yAyAA;sAAAAAB...                       ",
"                        ...;AA&yA;AA+gAAAAAB...                       ",
"                        ...2Ak.fAwAA,wAAshAA....                      ",
"                         ..7AsoAAAAA99AA93AA....                      ",
"                         ..ybsOAAAAA,sAAvlAA....                      ",
"                         ..zxAAAAAAAAAAAAnnv.....                     ",
"                         .:hyusffssfauvzzzzf.....                     ",
"                        ................@37@...                       ",
"                        .......................                       ",
"                          ..#...+....O..........                      ",
"                          ..OO..................                      ",
"                          .................                           ",
"                           ...........                                ",
"                             .......                                  ",
"                                ...                                   ",
"                                                                      ",
"                                                                      ",
"                                                                      ",
"                                                                      ",
"                                                                      ",
"                                                                      ",
"                                                                      ",
"                                                                      ",
"                                                                      ",
"                                                                      ",
"                                                                      ",
"                                                                      ",
"                                                                      ",
"                                                                      ",
"                                                                      ",
"                                                                      ",
"                                                                      ",
"                                                                      ",
"                                                                      "
};
