/* XPM */
static char *_f490728a39f4a6adcc8fcb5ce429746vOVgiSFgZ4uC1Y4u[] = {
/* columns rows colors chars-per-pixel */
"70 140 31 1 ",
"  c None",
". c black",
"X c gray5",
"o c #101010",
"O c gray10",
"+ c #202020",
"@ c gray15",
"# c gray19",
"$ c gray20",
"% c gray25",
"& c gray30",
"* c #505050",
"= c gray35",
"- c #606060",
"; c gray40",
": c gray44",
"> c gray45",
", c #808080",
"< c gray55",
"1 c gray56",
"2 c gray60",
"3 c #9F9F9F",
"4 c gray65",
"5 c #AFAFAF",
"6 c gray70",
"7 c gray75",
"8 c gray80",
"9 c gray81",
"0 c #DFDFDF",
"q c #EFEFEF",
"w c white",
/* pixels */
"                                                                      ",
"                                                                      ",
"                          .......................                     ",
"     ..     ................................................          ",
"    ............................................................      ",
"    .............................................................     ",
"   ..............................................................     ",
"   ...........%%%:,,,577770wwwwwwwwwwwwwwwwwww887771,,,,*%+.......    ",
"   ....+577wwwwwwwwwwwwwwwwwwwwwwwwwww3%%*3qwwwwwwwwwwwwwww0&.....    ",
"   ....*wwwwwwwwwwwwwwwwwwwwwwwwwwww5:o....+7wwwwwwwwwwwwwwww$....    ",
"   ....,wwwwwwwwwwwwwwwwwwwwwwwwq3*O..O$$X...3wwwwwwwwwwwwwww,....    ",
"   ....,wwwwwwwwwwwwwwwwwwwwww7-o.X$,68888,X..8wwwwwwwwwwwwww%....    ",
"   ....,wwwwwwwwwwwwwwwwwwwq1+.X&18888888884X.Owwwwwwwwwwwwww+....    ",
"   ....,wwwwwwwwwwwwwwwww0-o.$,88888888888881..4wwwwwwwwwwwwq....     ",
"   ....-wwwwwwwwwwwwwww0-..&68888888888888888@.+wwwwwwwwwwww7....     ",
"   ....%wwwwwwwwwwwwwq-.X;7888888888888888888,..5wwwwwwwwwww1....     ",
"   ....%wwwwwwwwwwww>OX;7888888888888888888887..*wwwwwwwwwww:....     ",
"   ....%wwwwwwwwww5+.=788888888888888888888888%.owwwwwwwwwww%....     ",
"   ....%wwwwwwwwq*.@48888888888888888888888888,..7wwwwwwwwww+....     ",
"   .....wwwwwwwq$.=8888888888888888888888888886..1wwwwwwwwww....      ",
"   .....wwwwwww$.>88888888888888888888888888888O.-wwwwwwwww0....      ",
"   .....wwwwww3.;988888888888888888888888888888&.%wwwwwwwww7....      ",
"   .....qwwwww%.8888888888888888888888888888888;.%wwwwwwwww7....      ",
"   .....7wwwww.$88888888888888888888888888888881..wwwwwwwww,....      ",
"   .....7wwwwq.%8888888888888888888888888888888:..wwwwwwwww,....      ",
"   .....7wwww7.;8888888888888888888888888888888&.%wwwwwwwww,....      ",
"   .....7wwww7.;888888888888888888888888888888,..>wwwwwwwww,....      ",
"   .....7wwwwq.;88888888888888888888888888888;..$qwwwwwwww0-....      ",
"   .....7wwwww.=888888888888888888888888887-X..$qwwwwwwq5%......      ",
"   .....7wwwww+$8888888888888888888888884&X..o,wwwwq1%+..........     ",
"    ....7wwwww*X8888888888888888888888,@...X,qwwww7o..............    ",
"    ....7wwwww1.48888888888888888886;X...#4wwwwww,................    ",
"    ....7wwwww0.&88888888888888882&....%7wwwwwq3+......@....X+....    ",
"    ....7wwwwww$.48888888888886:O....-7wwww3%.......O;6:...%82....    ",
"    ....7wwwwww3.O6888888888,%....o-0wwwww:.........488%..%882....    ",
"    ....7wwwwwww$.X;788871&X....+1qwwwwww0......&&..;87X..4882....    ",
"    ....7wwwwwww8+...X$......o-7wwwwwwwww:...X;6886288,..X8884....    ",
"    ....7wwwwwwwwq,$.....+*,8wwwwwwwwwwww%..&788888888O..=8888....    ",
"    ....7wwwwwwwwwwwwq8wwwwwwwwwwwwwwwwww...2888888881...68888....    ",
"    ....7wwwwwwwwwwwwwwwwwwwwwwwwwwwwwww0...786222788@..&88888O...    ",
"    ....8wwwwwwwwwwwwwwwwwwwwwwwwwwwwwww5..X7$.....@@...688888$....   ",
"    ....wwwwwwwwwwwwwwwwwwwwwwwwwwwwwwww-..O@..........%888888$....   ",
"    ....wwwwwwwwwwwwwwwwwwwwwwwwwwwwwwwwo.............X8888888$....   ",
"    ....wwwwwwwwwwwwwwwwwwwwwwwwwwwwwww1...@...:82;$.%48888888$....   ",
"    ....wwwwwwwwwwwwwwwwwwwwwwwwwwwwww0X..@$...888888888888888$....   ",
"    ....wwwwwwwwwwwwwwwwwwwwwwwwwwwwwq$...>$...888888888888888$....   ",
"    ....wwwwwwwwwwwwwwwwwwwwwwwwwwww4O...o7;...<88888888888888$....   ",
"    ....wwwwwwwwwwwwwwwwwwwwwwwwww8$.....181...=88888888888888$....   ",
"    ....wwwwwwwwwwwwwwwwwwwwwwwww8o....X,886...$88888888888888$....   ",
"    ....wwwwwwwwwwwwwwwwwwwwwwwwqo...X;78888@...88888888888888$....   ",
"    ....wwwwwwwwwwwwwwwwwwwwwwwq$...=7888888=...48888=,8888888$....   ",
"    ....wwwwwwwwwwwwwwwwwwwwww3o...=81&$.:18&...28888$;8888888$....   ",
"    ...%wwwwwwwwwwwwwwwwww71*o....&84...........68888$$,488888$....   ",
"    ...%wwwwwwwwwwwwwww3$........=887$O........O88888;X.288888$....   ",
"    ...%wwwwwwwwwwwww8$........O188888%........;88888=.$888888%....   ",
"    ...%wwwwwwwwwwww9o......$&18888888...X....$88887&..8888888;....   ",
"    ...%wwwwwwwwwwwq$....X188888888882...;,%%,888884.@.8888888;....   ",
"    ...%wwwwwwwwwww-...O..X48888888882...:88888888888;.8888888;....   ",
"    ...%wwwwwwwwww3...;8&..O7888888882...288888888888=X8888888;....   ",
"    ...%wwwwwwwww3...$888&..;888888882...288888888888@$8888888;....   ",
"    ...%wwwwwww8-...X78887OX;88888888;...,88888888886.;8888888;....   ",
"    ...$ww81,%o....X488888,$888888888;...;8888888888;.68888888;....   ",
"    ...$-o........$688888886888888888;...;8888888885X>88888888=....   ",
"    ...........$=48888888888888888888$...;888888888$,888888888$....   ",
"   .......XX;288888888888888888888888....288888888888888888888$....   ",
"   .........X48888888888888888888888;...X888888888888888888888$....   ",
"  ...........X18888$&888888888888884X...1888888888888888888888$....   ",
"  ....X$&O.....=8884X&8888888888884X...>8888888888888888888888O....   ",
"  ....,887&;1O..+6884X&7888888888=...O288888888888888888888888.....   ",
"  ....%8888888=..X>884OX=488884O4..X;7888888888888888888888888.....   ",
"   ....888888881O..O<79>;1887;..1<:888888888888888888888888888.....   ",
"   ...@8888888888;X...@$$$$@....488888888888888888888888888887.....   ",
"   ...:888888888888:O.........O1888888888888888888888888888882.....   ",
"   ...18888888888888851;;;;;2488888888888888888888888888888882.....   ",
"   ...;8888888888888888888888888888888888888888888888888888882.....   ",
"   ...$8888888888888888888888888888888888888888888888888888882.....   ",
"  .....788888888888888888888888888888888888888888888888888888,.....   ",
"  .....,88888888888888888888888888888888888888888888888888888;....    ",
"  .....;88888888888888888888888888888888888888888888888888888;....    ",
"   ....,88888888888888888888888888888888888888888888888888888;....    ",
"   ....288888888888888888888888888888888888888888888888888888;....    ",
"   .....48888888888888888888888888888888888888888888888888888$....    ",
"  ......X.18888888888888888888888888888888888888888888888888&.....    ",
"  .......X68888888888888888888888888888888888888888888888888......    ",
"  ......@6888888888888994=$%48888888888888888888888888888881......    ",
"  ......O78888888888888$.X&O$888888888888888888888888888888.......    ",
"  ....O&.:888888888884O.>8;.1888888888888888888888888888888;@.....    ",
" .....,88888888888881X.&;OO2888888888888888888888827888888882....     ",
" ....O8888888888888>..@=%,888888888888888888888888;,888888882....     ",
" .....6888888888881.%o7888888888888888888888888887%O688888882....     ",
" .....;88888888886OXO@7888888888888888888888888884O=888888881....     ",
" .....188888888884&$>88888888888888888888888888888$;88888888;....     ",
" .....28888888888888888888888888888888888888888888X488888888$....     ",
"  ....68888888888888888888888888888888888888888881O888888888X....     ",
"  ....1888888888888888888888888888888888888888888&;888888884.....     ",
"  ....;8888888888888888888888888888888888888888888888888888:.....     ",
"  ....$8888888888888888888888888888888888888888888888888888&.....     ",
"  ....X8888888888888888888888888888888888888888888888888888O.....     ",
"  .....6888888888888888888888888888888888888888888888888888......     ",
"   ....O..%688888888888888888888888888888888888888888888882......     ",
"   .........$$$$$;;,22888888888888888888888888888888888888,......     ",
"   ...................X$$X.......$$$=;,278888888888888886;X......     ",
"    ......................................$$$$$=;;$&=$$X........      ",
"    .............................................................     ",
"      ..........................................................      ",
"        .......................................................       ",
"                                                             .        ",
"                                                                      ",
"                                                                      ",
"                                                                      ",
"                                                                      ",
"                                                                      ",
"                                                                      ",
"                                                                      ",
"                                                                      ",
"                                                                      ",
"                                                                      ",
"                                                                      ",
"                                                                      ",
"                                                                      ",
"                                                                      ",
"                                                                      ",
"                                                                      ",
"                                                                      ",
"                                                                      ",
"                                                                      ",
"                                                                      ",
"                                                                      ",
"                                                                      ",
"                                                                      ",
"                                                                      ",
"                                                                      ",
"                                                                      ",
"                                                                      ",
"                                                                      ",
"                                                                      ",
"                                                                      ",
"                                                                      ",
"                                                                      ",
"                                                                      "
};
