/* XPM */
static char *_4e3367f062c434dbd3444ef66f546afDMPWW7RXqcROhpWM[] = {
/* columns rows colors chars-per-pixel */
"70 70 109 2 ",
"   c None",
".  c black",
"X  c #020202",
"o  c gray1",
"O  c #040404",
"+  c #060606",
"@  c gray4",
"#  c gray5",
"$  c #0E0E0E",
"%  c #111111",
"&  c gray7",
"*  c #131313",
"=  c #151515",
"-  c #191919",
";  c gray10",
":  c gray12",
">  c #202020",
",  c gray13",
"<  c #222222",
"1  c #232323",
"2  c gray14",
"3  c #252525",
"4  c gray15",
"5  c gray16",
"6  c #2A2A2A",
"7  c gray17",
"8  c #2C2C2C",
"9  c #2D2D2D",
"0  c gray18",
"q  c #313131",
"w  c gray20",
"e  c #343434",
"r  c #353535",
"t  c #373737",
"y  c #393939",
"u  c #3A3A3A",
"i  c #3C3C3C",
"p  c gray24",
"a  c gray25",
"s  c #414141",
"d  c gray26",
"f  c #444444",
"g  c #464646",
"h  c gray29",
"j  c #4B4B4B",
"k  c gray30",
"l  c #4E4E4E",
"z  c gray31",
"x  c #515151",
"c  c gray32",
"v  c #535353",
"b  c gray33",
"n  c #565656",
"m  c gray34",
"M  c #585858",
"N  c gray35",
"B  c #5A5A5A",
"V  c gray36",
"C  c gray37",
"Z  c #5F5F5F",
"A  c #606060",
"S  c #626262",
"D  c #656565",
"F  c gray40",
"G  c #676767",
"H  c #686868",
"J  c gray42",
"K  c gray43",
"L  c #6F6F6F",
"P  c #717171",
"I  c gray45",
"U  c gray46",
"Y  c #777777",
"T  c gray47",
"R  c #797979",
"E  c gray48",
"W  c #7C7C7C",
"Q  c gray49",
"!  c #808080",
"~  c #818181",
"^  c gray51",
"/  c #838383",
"(  c #848484",
")  c gray52",
"_  c #888888",
"`  c #898989",
"'  c gray54",
"]  c #8B8B8B",
"[  c gray57",
"{  c #939393",
"}  c gray59",
"|  c #979797",
" . c #9B9B9B",
".. c gray61",
"X. c #9D9D9D",
"o. c gray64",
"O. c #A4A4A4",
"+. c #A5A5A5",
"@. c gray65",
"#. c #A7A7A7",
"$. c #A9A9A9",
"%. c #AAAAAA",
"&. c gray67",
"*. c #ACACAC",
"=. c gray68",
"-. c #AFAFAF",
";. c #B1B1B1",
":. c #B4B4B4",
">. c gray72",
/* pixels */
"                                                                                                                                            ",
"                                                                                                                                            ",
"                                                                                                                                            ",
"                                                                                                                                            ",
"                                                                                                                                            ",
"                                                                                                                                            ",
"                                                                                                                                            ",
"                                                                                                                                            ",
"                                                                                                                                            ",
"                                                                                                                                            ",
"                                                                                                                                            ",
"                                                                                                                                            ",
"                                                                                                                                            ",
"                                                                                                                                            ",
"                                                                    . . . . . . . . . .                                                     ",
"                                                              + # & ; ; = # . . . . . . . .                                                 ",
"                                                          + & > > > > 3 > 3 5 l D v g & . . . . .                                           ",
"                                                        @ : > > > d n e 3 3 3 3 u v Z D d # . . . .                                         ",
"                                                      # > > e L ..Z 3 3 3 3 3 3 3 3 3 w g n 0 . . . .                                       ",
"                                                    + > > D ;.>.h 3 3 3 3 3 > 3 > 3 3 3 3 3 d p . . . .                                     ",
"                                                  . ; > Y >. .v 3 3 > 3 u ] ] 0 3 e 0 3 3 3 3 w p . . . .                                   ",
"                                                . + > u >.L 3 3 5 > > > 3 P p > > 3 3 3 3 3 3 3 g u . . .                                   ",
"                                              . . & 3 D Z > 3 > > > 3 3 3 > 3 > > > w M D D 3 3 3 l ; . . .                                 ",
"                                            . . & w 3 w 3 > > 3 3 3 3 > > w 0 3 3 J O.o.o.%.3 3 3 5 v . . .                                 ",
"                                            . . v u 3 3 5 > 3 > 3 > > 3 > 0 3 > 3 ..=.O.o.] 3 3 3 3 p > . .                                 ",
"                                          . . w D g 3 5 d 3 3 0 } e 0 3 3 > > 3 > P =.=...u > 3 ^ 3 5 g . . .                               ",
"                                        . . + Z S w 3 w e > > 0 g p p p > 3 3 3 3 g =...p > > v >.d 3 l . . .                               ",
"                                        . . w D w 3 > > 3 > 3 3 > 3 3 > 0 n 3 > > 3 M > > 3 > > v D 3 n # . .                               ",
"                                        . . S g > 3 d p > 3 3 > 3 3 > 3 J ] > 3 > 3 > 3 w E E u > 0 3 h ; . .                               ",
"                                      . . ; S 5 0 > J { 3 > g > > > 3 e o.Z 3 > 0 0 3 n =.=.%. .0 3 3 n ; . .                               ",
"                                      . . w l 3 P > ) P 3 > 0 3 3 > 3 n =.=.O.> p e > O.=.=.%.O.d 3 3 Z ; . .                               ",
"                                      . . g p v ..> ) h > 3 J 5 ) O.e E =.=.=.e > 3 3 Z =.=.%.o.n 3 0 D ; . .                               ",
"                                      . . l e L >.w h 3 p > 0 Z e > > ..v J  .> 3 3 > 0 =.=.%.] 5 3 l D & . .                               ",
"                                      . . l e ] >.} 5 3 3 3 5 3 3 3 > J ^ > e 3 > 3 3 > =.%.) 5 3 5 J D . . .                               ",
"                                      . . g e { >.:.^ > e J 3 > > > 3 w O.] P g > e > 3 Q n > > > u D l . .                                 ",
"                                      . . w h E >.>.] > > w 3 > 0 ^ l 3 Z O.P g 3 P 3 > > > e u 3 l D 0 . .                                 ",
"                                      . . > S l >.>.{ > > 3 3 3 > g n 3 0 w J g > M 3 3 Z } %.3 3 S D # . .                                 ",
"                                      . . . S M P >.{ 3 5 3 > ..E g 3 > Z o.=.D 3 > > 3 n ;.D 3 p D d . .                                   ",
"                                        . . u D S l e 3 l > 3 g J p 3 3 ..=.=.E 3 3 > 3 M } 3 3 S D # . .                                   ",
"                                        . . # S D D D 3 ^ v > > > > > 5 =.%.%.} > > 3 > D 0 3 p D 0 . .                                     ",
"                                          . . 0 D D D u S ^ 3 p n E w : > w v Z > > 3 3 3 3 0 S d . . .                                     ",
"                                          . . . g D D v u :.u e :.Y > h > > > > 3 3 3 3 3 5 M l + . .                                       ",
"                                            . . + n D D w Y { 3 D 0 D >.^ l 3 3 0 p h g h S d . . .                                         ",
"                                              . . . d D S u L d 3 n >.>.O.d 3 p D D D D S > . . .                                           ",
"                                                . . . > M S h g h u D M 3 5 g D J D S w + . . .                                             ",
"                                                  . . . . 3 n D D D Z n n J D D g 3 + . . .                                                 ",
"                                                      . . . . + ; e w w w > & . . . . . .                                                   ",
"                                                          . . . . . . . . . . . . . .                                                       ",
"                                                                  . . . . . .                                                               ",
"                                                                                                                                            ",
"                                                                                                                                            ",
"                                                                                                                                            ",
"                                                                                                                                            ",
"                                                                                                                                            ",
"                                                                                                                                            ",
"                                                                                                                                            ",
"                                                                                                                                            ",
"                                                                                                                                            ",
"                                                                                                                                            ",
"                                                                                                                                            ",
"                                                                                                                                            ",
"                                                                                                                                            ",
"                                                                                                                                            ",
"                                                                                                                                            ",
"                                                                                                                                            ",
"                                                                                                                                            ",
"                                                                                                                                            ",
"                                                                                                                                            ",
"                                                                                                                                            ",
"                                                                                                                                            "
};
